<svg width="365" height="55" viewBox="0 0 365 55" fill="none" xmlns="http://www.w3.org/2000/svg">
<path d="M4.02209 5.0434C98.5466 36.7817 374.974 6.87489 361 1.00569" stroke="black" stroke-width="2"/>
<path d="M85.7008 24.7503C85.7008 25.6703 84.7884 26.6519 83.3504 26.6519C81.9125 26.6519 81 25.6703 81 24.7503C81 23.8302 81.9125 22.8487 83.3504 22.8487C84.7884 22.8487 85.7008 23.8302 85.7008 24.7503Z" fill="#D2D1C5" stroke="black" stroke-width="2"/>
<g filter="url(#filter0_d_2_88)">
<path d="M88.9472 31.8104C90.0497 35.8519 85.9236 45.0057 83.0686 45.0057C81.4078 45.0057 76.076 36.5428 77.139 31.8104C77.999 27.9815 79.805 24.7309 83.0686 24.7309C86.3322 24.7309 87.8446 27.7689 88.9472 31.8104Z" fill="#FF1111"/>
<path d="M87.9824 32.0736C88.1995 32.8694 88.1776 34.0238 87.9135 35.387C87.6536 36.7285 87.1776 38.1784 86.5792 39.5151C85.9787 40.8565 85.2744 42.0405 84.5798 42.8705C84.2322 43.2857 83.9094 43.5855 83.628 43.7747C83.3996 43.9284 83.2367 43.984 83.1344 44.0001C83.0988 43.9811 83.0272 43.9387 82.9158 43.8501C82.6871 43.6683 82.3964 43.3761 82.0628 42.9724C81.3995 42.1698 80.6478 41.0258 79.9696 39.7214C79.292 38.4182 78.705 36.9882 78.3518 35.6189C77.9948 34.235 77.8979 32.9946 78.1146 32.0296C78.5294 30.183 79.1549 28.5666 80.0029 27.4342C80.8305 26.329 81.8262 25.7309 83.0686 25.7309C84.3198 25.7309 85.2358 26.2841 86.0108 27.345C86.8218 28.4552 87.4376 30.0766 87.9824 32.0736Z" stroke="black" stroke-width="2"/>
</g>
<line x1="83.5" y1="18.0057" x2="83.5" y2="21.8487" stroke="black"/>
<path d="M122.701 25.7503C122.701 26.6703 121.788 27.6519 120.35 27.6519C118.912 27.6519 118 26.6703 118 25.7503C118 24.8302 118.912 23.8487 120.35 23.8487C121.788 23.8487 122.701 24.8302 122.701 25.7503Z" fill="#D2D1C5" stroke="black" stroke-width="2"/>
<g filter="url(#filter1_d_2_88)">
<path d="M125.947 32.8104C127.05 36.8519 122.924 46.0057 120.069 46.0057C118.408 46.0057 113.076 37.5428 114.139 32.8104C114.999 28.9815 116.805 25.7309 120.069 25.7309C123.332 25.7309 124.845 28.7689 125.947 32.8104Z" fill="#F3EA19"/>
<path d="M124.982 33.0736C125.2 33.8694 125.178 35.0238 124.913 36.387C124.654 37.7285 124.178 39.1784 123.579 40.5151C122.979 41.8565 122.274 43.0405 121.58 43.8705C121.232 44.2857 120.909 44.5855 120.628 44.7747C120.4 44.9284 120.237 44.984 120.134 45.0001C120.099 44.9811 120.027 44.9387 119.916 44.8501C119.687 44.6683 119.396 44.3761 119.063 43.9724C118.399 43.1698 117.648 42.0258 116.97 40.7214C116.292 39.4182 115.705 37.9882 115.352 36.6189C114.995 35.235 114.898 33.9946 115.115 33.0296C115.529 31.183 116.155 29.5666 117.003 28.4342C117.831 27.329 118.826 26.7309 120.069 26.7309C121.32 26.7309 122.236 27.2841 123.011 28.345C123.822 29.4552 124.438 31.0766 124.982 33.0736Z" stroke="black" stroke-width="2"/>
</g>
<line x1="120.5" y1="19.0057" x2="120.5" y2="22.8487" stroke="black"/>
<path d="M167.701 26.7503C167.701 27.6703 166.788 28.6519 165.35 28.6519C163.912 28.6519 163 27.6703 163 26.7503C163 25.8302 163.912 24.8487 165.35 24.8487C166.788 24.8487 167.701 25.8302 167.701 26.7503Z" fill="#D2D1C5" stroke="black" stroke-width="2"/>
<g filter="url(#filter2_d_2_88)">
<path d="M170.947 33.8104C172.05 37.8519 167.924 47.0057 165.069 47.0057C163.408 47.0057 158.076 38.5428 159.139 33.8104C159.999 29.9815 161.805 26.7309 165.069 26.7309C168.332 26.7309 169.845 29.7689 170.947 33.8104Z" fill="#FF1111"/>
<path d="M169.982 34.0736C170.2 34.8694 170.178 36.0238 169.913 37.387C169.654 38.7285 169.178 40.1784 168.579 41.5151C167.979 42.8565 167.274 44.0405 166.58 44.8705C166.232 45.2857 165.909 45.5855 165.628 45.7747C165.4 45.9284 165.237 45.984 165.134 46.0001C165.099 45.9811 165.027 45.9387 164.916 45.8501C164.687 45.6683 164.396 45.3761 164.063 44.9724C163.399 44.1698 162.648 43.0258 161.97 41.7214C161.292 40.4182 160.705 38.9882 160.352 37.6189C159.995 36.235 159.898 34.9946 160.115 34.0296C160.529 32.183 161.155 30.5666 162.003 29.4342C162.831 28.329 163.826 27.7309 165.069 27.7309C166.32 27.7309 167.236 28.2841 168.011 29.345C168.822 30.4552 169.438 32.0766 169.982 34.0736Z" stroke="black" stroke-width="2"/>
</g>
<line x1="165.5" y1="20.0057" x2="165.5" y2="23.8487" stroke="black"/>
<path d="M209.701 24.7503C209.701 25.6703 208.788 26.6519 207.35 26.6519C205.912 26.6519 205 25.6703 205 24.7503C205 23.8302 205.912 22.8487 207.35 22.8487C208.788 22.8487 209.701 23.8302 209.701 24.7503Z" fill="#D2D1C5" stroke="black" stroke-width="2"/>
<g filter="url(#filter3_d_2_88)">
<path d="M212.947 31.8104C214.05 35.8519 209.924 45.0057 207.069 45.0057C205.408 45.0057 200.076 36.5428 201.139 31.8104C201.999 27.9815 203.805 24.7309 207.069 24.7309C210.332 24.7309 211.845 27.7689 212.947 31.8104Z" fill="#F3EA19"/>
<path d="M211.982 32.0736C212.2 32.8694 212.178 34.0238 211.913 35.387C211.654 36.7285 211.178 38.1784 210.579 39.5151C209.979 40.8565 209.274 42.0405 208.58 42.8705C208.232 43.2857 207.909 43.5855 207.628 43.7747C207.4 43.9284 207.237 43.984 207.134 44.0001C207.099 43.9811 207.027 43.9387 206.916 43.8501C206.687 43.6683 206.396 43.3761 206.063 42.9724C205.399 42.1698 204.648 41.0258 203.97 39.7214C203.292 38.4182 202.705 36.9882 202.352 35.6189C201.995 34.235 201.898 32.9946 202.115 32.0296C202.529 30.183 203.155 28.5666 204.003 27.4342C204.831 26.329 205.826 25.7309 207.069 25.7309C208.32 25.7309 209.236 26.2841 210.011 27.345C210.822 28.4552 211.438 30.0766 211.982 32.0736Z" stroke="black" stroke-width="2"/>
</g>
<line x1="207.5" y1="18.0057" x2="207.5" y2="21.8487" stroke="black"/>
<path d="M251.701 22.7503C251.701 23.6703 250.788 24.6519 249.35 24.6519C247.912 24.6519 247 23.6703 247 22.7503C247 21.8302 247.912 20.8487 249.35 20.8487C250.788 20.8487 251.701 21.8302 251.701 22.7503Z" fill="#D2D1C5" stroke="black" stroke-width="2"/>
<g filter="url(#filter4_d_2_88)">
<path d="M254.947 29.8104C256.05 33.8519 251.924 43.0057 249.069 43.0057C247.408 43.0057 242.076 34.5428 243.139 29.8104C243.999 25.9815 245.805 22.7309 249.069 22.7309C252.332 22.7309 253.845 25.7689 254.947 29.8104Z" fill="#FF1111"/>
<path d="M253.982 30.0736C254.2 30.8694 254.178 32.0238 253.913 33.387C253.654 34.7285 253.178 36.1784 252.579 37.5151C251.979 38.8565 251.274 40.0405 250.58 40.8705C250.232 41.2857 249.909 41.5855 249.628 41.7747C249.4 41.9284 249.237 41.984 249.134 42.0001C249.099 41.9811 249.027 41.9387 248.916 41.8501C248.687 41.6683 248.396 41.3761 248.063 40.9724C247.399 40.1698 246.648 39.0258 245.97 37.7214C245.292 36.4182 244.705 34.9882 244.352 33.6189C243.995 32.235 243.898 30.9946 244.115 30.0296C244.529 28.183 245.155 26.5666 246.003 25.4342C246.831 24.329 247.826 23.7309 249.069 23.7309C250.32 23.7309 251.236 24.2841 252.011 25.345C252.822 26.4552 253.438 28.0766 253.982 30.0736Z" stroke="black" stroke-width="2"/>
</g>
<line x1="249.5" y1="16.0057" x2="249.5" y2="19.8487" stroke="black"/>
<path d="M286.701 20.7503C286.701 21.6703 285.788 22.6519 284.35 22.6519C282.912 22.6519 282 21.6703 282 20.7503C282 19.8302 282.912 18.8487 284.35 18.8487C285.788 18.8487 286.701 19.8302 286.701 20.7503Z" fill="#D2D1C5" stroke="black" stroke-width="2"/>
<g filter="url(#filter5_d_2_88)">
<path d="M289.947 27.8104C291.05 31.8519 286.924 41.0057 284.069 41.0057C282.408 41.0057 277.076 32.5428 278.139 27.8104C278.999 23.9815 280.805 20.7309 284.069 20.7309C287.332 20.7309 288.845 23.7689 289.947 27.8104Z" fill="#F3EA19"/>
<path d="M288.982 28.0736C289.2 28.8694 289.178 30.0238 288.913 31.387C288.654 32.7285 288.178 34.1784 287.579 35.5151C286.979 36.8565 286.274 38.0405 285.58 38.8705C285.232 39.2857 284.909 39.5855 284.628 39.7747C284.4 39.9284 284.237 39.984 284.134 40.0001C284.099 39.9811 284.027 39.9387 283.916 39.8501C283.687 39.6683 283.396 39.3761 283.063 38.9724C282.399 38.1698 281.648 37.0258 280.97 35.7214C280.292 34.4182 279.705 32.9882 279.352 31.6189C278.995 30.235 278.898 28.9946 279.115 28.0296C279.529 26.183 280.155 24.5666 281.003 23.4342C281.831 22.329 282.826 21.7309 284.069 21.7309C285.32 21.7309 286.236 22.2841 287.011 23.345C287.822 24.4552 288.438 26.0766 288.982 28.0736Z" stroke="black" stroke-width="2"/>
</g>
<line x1="284.5" y1="14.0057" x2="284.5" y2="17.8487" stroke="black"/>
<path d="M321.701 17.7503C321.701 18.6703 320.788 19.6519 319.35 19.6519C317.912 19.6519 317 18.6703 317 17.7503C317 16.8302 317.912 15.8487 319.35 15.8487C320.788 15.8487 321.701 16.8302 321.701 17.7503Z" fill="#D2D1C5" stroke="black" stroke-width="2"/>
<g filter="url(#filter6_d_2_88)">
<path d="M324.947 24.8104C326.05 28.8519 321.924 38.0057 319.069 38.0057C317.408 38.0057 312.076 29.5428 313.139 24.8104C313.999 20.9815 315.805 17.7309 319.069 17.7309C322.332 17.7309 323.845 20.7689 324.947 24.8104Z" fill="#FF1111"/>
<path d="M323.982 25.0736C324.2 25.8694 324.178 27.0238 323.913 28.387C323.654 29.7285 323.178 31.1784 322.579 32.5151C321.979 33.8565 321.274 35.0405 320.58 35.8705C320.232 36.2857 319.909 36.5855 319.628 36.7747C319.4 36.9284 319.237 36.984 319.134 37.0001C319.099 36.9811 319.027 36.9387 318.916 36.8501C318.687 36.6683 318.396 36.3761 318.063 35.9724C317.399 35.1698 316.648 34.0258 315.97 32.7214C315.292 31.4182 314.705 29.9882 314.352 28.6189C313.995 27.235 313.898 25.9946 314.115 25.0296C314.529 23.183 315.155 21.5666 316.003 20.4342C316.831 19.329 317.826 18.7309 319.069 18.7309C320.32 18.7309 321.236 19.2841 322.011 20.345C322.822 21.4552 323.438 23.0766 323.982 25.0736Z" stroke="black" stroke-width="2"/>
</g>
<line x1="319.5" y1="11.0057" x2="319.5" y2="14.8487" stroke="black"/>
<path d="M356.701 9.75029C356.701 10.6703 355.788 11.6519 354.35 11.6519C352.912 11.6519 352 10.6703 352 9.75029C352 8.83025 352.912 7.84869 354.35 7.84869C355.788 7.84869 356.701 8.83025 356.701 9.75029Z" fill="#D2D1C5" stroke="black" stroke-width="2"/>
<g filter="url(#filter7_d_2_88)">
<path d="M359.947 16.8104C361.05 20.8519 356.924 30.0057 354.069 30.0057C352.408 30.0057 347.076 21.5428 348.139 16.8104C348.999 12.9815 350.805 9.7309 354.069 9.7309C357.332 9.7309 358.845 12.7689 359.947 16.8104Z" fill="#F3EA19"/>
<path d="M358.982 17.0736C359.2 17.8694 359.178 19.0238 358.913 20.387C358.654 21.7285 358.178 23.1784 357.579 24.5151C356.979 25.8565 356.274 27.0405 355.58 27.8705C355.232 28.2857 354.909 28.5855 354.628 28.7747C354.4 28.9284 354.237 28.984 354.134 29.0001C354.099 28.9811 354.027 28.9387 353.916 28.8501C353.687 28.6683 353.396 28.3761 353.063 27.9724C352.399 27.1698 351.648 26.0258 350.97 24.7214C350.292 23.4182 349.705 21.9882 349.352 20.6189C348.995 19.235 348.898 17.9946 349.115 17.0296C349.529 15.183 350.155 13.5666 351.003 12.4342C351.831 11.329 352.826 10.7309 354.069 10.7309C355.32 10.7309 356.236 11.2841 357.011 12.345C357.822 13.4552 358.438 15.0766 358.982 17.0736Z" stroke="black" stroke-width="2"/>
</g>
<line x1="354.5" y1="3.00574" x2="354.5" y2="6.84868" stroke="black"/>
<path d="M47.7008 20.7503C47.7008 21.6703 46.7884 22.6519 45.3504 22.6519C43.9125 22.6519 43 21.6703 43 20.7503C43 19.8302 43.9125 18.8487 45.3504 18.8487C46.7884 18.8487 47.7008 19.8302 47.7008 20.7503Z" fill="#D2D1C5" stroke="black" stroke-width="2"/>
<g filter="url(#filter8_d_2_88)">
<path d="M50.9472 27.8104C52.0497 31.8519 47.9236 41.0057 45.0686 41.0057C43.4078 41.0057 38.076 32.5428 39.139 27.8104C39.999 23.9815 41.805 20.7309 45.0686 20.7309C48.3322 20.7309 49.8446 23.7689 50.9472 27.8104Z" fill="#F3EA19"/>
<path d="M49.9824 28.0736C50.1995 28.8694 50.1776 30.0238 49.9135 31.387C49.6536 32.7285 49.1776 34.1784 48.5792 35.5151C47.9787 36.8565 47.2744 38.0405 46.5798 38.8705C46.2322 39.2857 45.9094 39.5855 45.628 39.7747C45.3996 39.9284 45.2367 39.984 45.1344 40.0001C45.0988 39.9811 45.0272 39.9387 44.9158 39.8501C44.6871 39.6683 44.3964 39.3761 44.0628 38.9724C43.3995 38.1698 42.6478 37.0258 41.9696 35.7214C41.292 34.4182 40.705 32.9882 40.3518 31.6189C39.9948 30.235 39.8979 28.9946 40.1146 28.0296C40.5294 26.183 41.1549 24.5666 42.0029 23.4342C42.8305 22.329 43.8262 21.7309 45.0686 21.7309C46.3198 21.7309 47.2358 22.2841 48.0108 23.345C48.8218 24.4552 49.4376 26.0766 49.9824 28.0736Z" stroke="black" stroke-width="2"/>
</g>
<line x1="45.5" y1="14.0057" x2="45.5" y2="17.8487" stroke="black"/>
<path d="M12.7008 12.7503C12.7008 13.6703 11.7884 14.6519 10.3504 14.6519C8.91246 14.6519 8 13.6703 8 12.7503C8 11.8302 8.91246 10.8487 10.3504 10.8487C11.7884 10.8487 12.7008 11.8302 12.7008 12.7503Z" fill="#D2D1C5" stroke="black" stroke-width="2"/>
<g filter="url(#filter9_d_2_88)">
<path d="M15.9472 19.8104C17.0497 23.8519 12.9236 33.0057 10.0686 33.0057C8.40783 33.0057 3.07595 24.5428 4.13896 19.8104C4.99901 15.9815 6.80503 12.7309 10.0686 12.7309C13.3322 12.7309 14.8446 15.7689 15.9472 19.8104Z" fill="#FF1111"/>
<path d="M14.9824 20.0736C15.1995 20.8694 15.1776 22.0238 14.9135 23.387C14.6536 24.7285 14.1776 26.1784 13.5792 27.5151C12.9787 28.8565 12.2744 30.0405 11.5798 30.8705C11.2322 31.2857 10.9094 31.5855 10.628 31.7747C10.3996 31.9284 10.2367 31.984 10.1344 32.0001C10.0988 31.9811 10.0272 31.9387 9.91576 31.8501C9.68713 31.6683 9.3964 31.3761 9.06281 30.9724C8.39949 30.1698 7.64783 29.0258 6.9696 27.7214C6.29202 26.4182 5.70499 24.9882 5.35177 23.6189C4.99479 22.235 4.89788 20.9946 5.11465 20.0296C5.52943 18.183 6.15491 16.5666 7.00291 15.4342C7.83055 14.329 8.82617 13.7309 10.0686 13.7309C11.3198 13.7309 12.2358 14.2841 13.0108 15.345C13.8218 16.4552 14.4376 18.0766 14.9824 20.0736Z" stroke="black" stroke-width="2"/>
</g>
<line x1="10.5" y1="6.00574" x2="10.5" y2="9.84574" stroke="black"/>
<defs>
<filter id="filter0_d_2_88" x="73" y="24.7309" width="20.13" height="28.2748" filterUnits="userSpaceOnUse" color-interpolation-filters="sRGB">
<feFlood flood-opacity="0" result="BackgroundImageFix"/>
<feColorMatrix in="SourceAlpha" type="matrix" values="0 0 0 0 0 0 0 0 0 0 0 0 0 0 0 0 0 0 127 0" result="hardAlpha"/>
<feOffset dy="4"/>
<feGaussianBlur stdDeviation="2"/>
<feComposite in2="hardAlpha" operator="out"/>
<feColorMatrix type="matrix" values="0 0 0 0 0 0 0 0 0 0 0 0 0 0 0 0 0 0 0.25 0"/>
<feBlend mode="normal" in2="BackgroundImageFix" result="effect1_dropShadow_2_88"/>
<feBlend mode="normal" in="SourceGraphic" in2="effect1_dropShadow_2_88" result="shape"/>
</filter>
<filter id="filter1_d_2_88" x="110" y="25.7309" width="20.13" height="28.2748" filterUnits="userSpaceOnUse" color-interpolation-filters="sRGB">
<feFlood flood-opacity="0" result="BackgroundImageFix"/>
<feColorMatrix in="SourceAlpha" type="matrix" values="0 0 0 0 0 0 0 0 0 0 0 0 0 0 0 0 0 0 127 0" result="hardAlpha"/>
<feOffset dy="4"/>
<feGaussianBlur stdDeviation="2"/>
<feComposite in2="hardAlpha" operator="out"/>
<feColorMatrix type="matrix" values="0 0 0 0 0 0 0 0 0 0 0 0 0 0 0 0 0 0 0.25 0"/>
<feBlend mode="normal" in2="BackgroundImageFix" result="effect1_dropShadow_2_88"/>
<feBlend mode="normal" in="SourceGraphic" in2="effect1_dropShadow_2_88" result="shape"/>
</filter>
<filter id="filter2_d_2_88" x="155" y="26.7309" width="20.13" height="28.2748" filterUnits="userSpaceOnUse" color-interpolation-filters="sRGB">
<feFlood flood-opacity="0" result="BackgroundImageFix"/>
<feColorMatrix in="SourceAlpha" type="matrix" values="0 0 0 0 0 0 0 0 0 0 0 0 0 0 0 0 0 0 127 0" result="hardAlpha"/>
<feOffset dy="4"/>
<feGaussianBlur stdDeviation="2"/>
<feComposite in2="hardAlpha" operator="out"/>
<feColorMatrix type="matrix" values="0 0 0 0 0 0 0 0 0 0 0 0 0 0 0 0 0 0 0.25 0"/>
<feBlend mode="normal" in2="BackgroundImageFix" result="effect1_dropShadow_2_88"/>
<feBlend mode="normal" in="SourceGraphic" in2="effect1_dropShadow_2_88" result="shape"/>
</filter>
<filter id="filter3_d_2_88" x="197" y="24.7309" width="20.13" height="28.2748" filterUnits="userSpaceOnUse" color-interpolation-filters="sRGB">
<feFlood flood-opacity="0" result="BackgroundImageFix"/>
<feColorMatrix in="SourceAlpha" type="matrix" values="0 0 0 0 0 0 0 0 0 0 0 0 0 0 0 0 0 0 127 0" result="hardAlpha"/>
<feOffset dy="4"/>
<feGaussianBlur stdDeviation="2"/>
<feComposite in2="hardAlpha" operator="out"/>
<feColorMatrix type="matrix" values="0 0 0 0 0 0 0 0 0 0 0 0 0 0 0 0 0 0 0.25 0"/>
<feBlend mode="normal" in2="BackgroundImageFix" result="effect1_dropShadow_2_88"/>
<feBlend mode="normal" in="SourceGraphic" in2="effect1_dropShadow_2_88" result="shape"/>
</filter>
<filter id="filter4_d_2_88" x="239" y="22.7309" width="20.13" height="28.2748" filterUnits="userSpaceOnUse" color-interpolation-filters="sRGB">
<feFlood flood-opacity="0" result="BackgroundImageFix"/>
<feColorMatrix in="SourceAlpha" type="matrix" values="0 0 0 0 0 0 0 0 0 0 0 0 0 0 0 0 0 0 127 0" result="hardAlpha"/>
<feOffset dy="4"/>
<feGaussianBlur stdDeviation="2"/>
<feComposite in2="hardAlpha" operator="out"/>
<feColorMatrix type="matrix" values="0 0 0 0 0 0 0 0 0 0 0 0 0 0 0 0 0 0 0.25 0"/>
<feBlend mode="normal" in2="BackgroundImageFix" result="effect1_dropShadow_2_88"/>
<feBlend mode="normal" in="SourceGraphic" in2="effect1_dropShadow_2_88" result="shape"/>
</filter>
<filter id="filter5_d_2_88" x="274" y="20.7309" width="20.13" height="28.2748" filterUnits="userSpaceOnUse" color-interpolation-filters="sRGB">
<feFlood flood-opacity="0" result="BackgroundImageFix"/>
<feColorMatrix in="SourceAlpha" type="matrix" values="0 0 0 0 0 0 0 0 0 0 0 0 0 0 0 0 0 0 127 0" result="hardAlpha"/>
<feOffset dy="4"/>
<feGaussianBlur stdDeviation="2"/>
<feComposite in2="hardAlpha" operator="out"/>
<feColorMatrix type="matrix" values="0 0 0 0 0 0 0 0 0 0 0 0 0 0 0 0 0 0 0.25 0"/>
<feBlend mode="normal" in2="BackgroundImageFix" result="effect1_dropShadow_2_88"/>
<feBlend mode="normal" in="SourceGraphic" in2="effect1_dropShadow_2_88" result="shape"/>
</filter>
<filter id="filter6_d_2_88" x="309" y="17.7309" width="20.13" height="28.2748" filterUnits="userSpaceOnUse" color-interpolation-filters="sRGB">
<feFlood flood-opacity="0" result="BackgroundImageFix"/>
<feColorMatrix in="SourceAlpha" type="matrix" values="0 0 0 0 0 0 0 0 0 0 0 0 0 0 0 0 0 0 127 0" result="hardAlpha"/>
<feOffset dy="4"/>
<feGaussianBlur stdDeviation="2"/>
<feComposite in2="hardAlpha" operator="out"/>
<feColorMatrix type="matrix" values="0 0 0 0 0 0 0 0 0 0 0 0 0 0 0 0 0 0 0.25 0"/>
<feBlend mode="normal" in2="BackgroundImageFix" result="effect1_dropShadow_2_88"/>
<feBlend mode="normal" in="SourceGraphic" in2="effect1_dropShadow_2_88" result="shape"/>
</filter>
<filter id="filter7_d_2_88" x="344" y="9.7309" width="20.13" height="28.2748" filterUnits="userSpaceOnUse" color-interpolation-filters="sRGB">
<feFlood flood-opacity="0" result="BackgroundImageFix"/>
<feColorMatrix in="SourceAlpha" type="matrix" values="0 0 0 0 0 0 0 0 0 0 0 0 0 0 0 0 0 0 127 0" result="hardAlpha"/>
<feOffset dy="4"/>
<feGaussianBlur stdDeviation="2"/>
<feComposite in2="hardAlpha" operator="out"/>
<feColorMatrix type="matrix" values="0 0 0 0 0 0 0 0 0 0 0 0 0 0 0 0 0 0 0.25 0"/>
<feBlend mode="normal" in2="BackgroundImageFix" result="effect1_dropShadow_2_88"/>
<feBlend mode="normal" in="SourceGraphic" in2="effect1_dropShadow_2_88" result="shape"/>
</filter>
<filter id="filter8_d_2_88" x="35" y="20.7309" width="20.13" height="28.2748" filterUnits="userSpaceOnUse" color-interpolation-filters="sRGB">
<feFlood flood-opacity="0" result="BackgroundImageFix"/>
<feColorMatrix in="SourceAlpha" type="matrix" values="0 0 0 0 0 0 0 0 0 0 0 0 0 0 0 0 0 0 127 0" result="hardAlpha"/>
<feOffset dy="4"/>
<feGaussianBlur stdDeviation="2"/>
<feComposite in2="hardAlpha" operator="out"/>
<feColorMatrix type="matrix" values="0 0 0 0 0 0 0 0 0 0 0 0 0 0 0 0 0 0 0.25 0"/>
<feBlend mode="normal" in2="BackgroundImageFix" result="effect1_dropShadow_2_88"/>
<feBlend mode="normal" in="SourceGraphic" in2="effect1_dropShadow_2_88" result="shape"/>
</filter>
<filter id="filter9_d_2_88" x="0" y="12.7309" width="20.13" height="28.2748" filterUnits="userSpaceOnUse" color-interpolation-filters="sRGB">
<feFlood flood-opacity="0" result="BackgroundImageFix"/>
<feColorMatrix in="SourceAlpha" type="matrix" values="0 0 0 0 0 0 0 0 0 0 0 0 0 0 0 0 0 0 127 0" result="hardAlpha"/>
<feOffset dy="4"/>
<feGaussianBlur stdDeviation="2"/>
<feComposite in2="hardAlpha" operator="out"/>
<feColorMatrix type="matrix" values="0 0 0 0 0 0 0 0 0 0 0 0 0 0 0 0 0 0 0.25 0"/>
<feBlend mode="normal" in2="BackgroundImageFix" result="effect1_dropShadow_2_88"/>
<feBlend mode="normal" in="SourceGraphic" in2="effect1_dropShadow_2_88" result="shape"/>
</filter>
</defs>
</svg>
